<svg width="256" height="256" viewBox="0 0 256 256" fill="none" xmlns="http://www.w3.org/2000/svg">
<path d="M228.604 53.8601L138.802 127.355C132.656 132.378 123.327 132.378 117.181 127.355L27.3789 53.8601C31.5647 48.9723 37.6749 45.8984 44.4754 45.8984H211.507C218.308 45.8984 224.418 48.9723 228.604 53.8601Z" fill="#EA4335"/>
<path d="M25.6 63.8055V190.957C25.6 201.559 34.195 210.154 44.7961 210.154H211.186C221.787 210.154 230.382 201.559 230.382 190.957V63.8055C230.382 59.973 229.351 56.3768 227.564 53.2842L146.471 119.663C136.002 128.232 120.016 128.232 109.547 119.663L28.4185 53.2842C26.6309 56.3768 25.6 59.973 25.6 63.8055Z" fill="#FBBC04"/>
<path d="M28.4185 53.2842L109.547 119.663C120.016 128.232 136.002 128.232 146.471 119.663L227.564 53.2842C223.774 47.9658 217.95 44.5244 211.458 44.5244H44.5244C38.0322 44.5244 32.2085 47.9658 28.4185 53.2842Z" fill="#c5221f" fill-opacity="0.2"/>
<path d="M230.382 63.8055V190.957C230.382 201.559 221.787 210.154 211.186 210.154H44.7961C34.195 210.154 25.6 201.559 25.6 190.957V63.8055C25.6 59.973 26.6309 56.3768 28.4185 53.2842L109.547 119.663C120.016 128.232 136.002 128.232 146.471 119.663L227.564 53.2842C229.351 56.3768 230.382 59.973 230.382 63.8055Z" fill="url(#paint_gmail)" opacity="0"/>
<defs>
<linearGradient id="paint_gmail" x1="25.6" y1="44.5244" x2="25.6" y2="210.154" gradientUnits="userSpaceOnUse">
<stop stop-color="#EA4335"/>
<stop offset="1" stop-color="#C5221F"/>
</linearGradient>
</defs>
</svg>
