<svg width="256" height="256" viewBox="0 0 256 256" fill="none" xmlns="http://www.w3.org/2000/svg">
<defs>
<linearGradient id="paint0_linear_226_33" x1="20.8409" y1="235.159" x2="204.665" y2="51.3352" gradientUnits="userSpaceOnUse">
<stop stop-color="#fa8f21"/>
<stop offset="1" stop-color="#d82d7e"/>
</linearGradient>
</defs>
<path fill="url(#paint0_linear_226_33)" fill-rule="evenodd" clip-rule="evenodd" d="M128 0C93.2483 0 88.8921 0.147571 75.2494 0.77002C61.6426 1.39089 52.3486 3.55169 44.2086 6.71457C35.7951 9.9856 28.6674 14.3909 21.5749 21.4834C14.4823 28.576 10.077 35.7037 6.80597 44.1171C3.64309 52.2571 1.48229 61.5511 0.86142 75.1579C0.240552 88.8006 0.0914063 93.1568 0.0914063 127.909C0.0914063 162.66 0.240552 167.017 0.86142 180.659C1.48229 194.266 3.64309 203.56 6.80597 211.7C10.077 220.113 14.4823 227.241 21.5749 234.334C28.6674 241.426 35.7951 245.831 44.2086 249.102C52.3486 252.265 61.6426 254.426 75.2494 255.047C88.8921 255.669 93.2483 255.817 128 255.817C162.752 255.817 167.108 255.669 180.751 255.047C194.357 254.426 203.651 252.265 211.791 249.102C220.205 245.831 227.333 241.426 234.425 234.334C241.518 227.241 245.923 220.113 249.194 211.7C252.357 203.56 254.518 194.266 255.139 180.659C255.759 167.017 255.909 162.66 255.909 127.909C255.909 93.1568 255.759 88.8006 255.139 75.1579C254.518 61.5511 252.357 52.2571 249.194 44.1171C245.923 35.7037 241.518 28.576 234.425 21.4834C227.333 14.3909 220.205 9.9856 211.791 6.71457C203.651 3.55169 194.357 1.39089 180.751 0.77002C167.108 0.147571 162.752 0 128 0ZM128 23.0457C162.152 23.0457 166.2 23.176 179.685 23.7914C192.16 24.3606 198.929 26.4446 203.437 28.1966C209.408 30.5177 213.67 33.2925 218.15 37.7725C222.63 42.2525 225.405 46.5142 227.726 52.4851C229.477 56.9922 231.562 63.7611 232.131 76.2366C232.747 89.7211 232.877 93.7691 232.877 127.922C232.877 162.074 232.747 166.122 232.131 179.607C231.562 192.082 229.477 198.851 227.726 203.358C225.405 209.329 222.63 213.591 218.15 218.071C213.67 222.551 209.408 225.326 203.437 227.647C198.929 229.399 192.16 231.483 179.685 232.052C166.2 232.667 162.152 232.798 128 232.798C93.848 232.798 89.8 232.667 76.3154 232.052C63.84 231.483 57.0709 229.399 52.5634 227.647C46.592 225.326 42.3303 222.551 37.8503 218.071C33.3703 213.591 30.5954 209.329 28.2743 203.358C26.5234 198.851 24.4389 192.082 23.8697 179.607C23.2537 166.122 23.1234 162.074 23.1234 127.922C23.1234 93.7691 23.2537 89.7211 23.8697 76.2366C24.4389 63.7611 26.5234 56.9922 28.2743 52.4851C30.5954 46.5142 33.3703 42.2525 37.8503 37.7725C42.3303 33.2925 46.592 30.5177 52.5634 28.1966C57.0709 26.4446 63.84 24.3606 76.3154 23.7914C89.8 23.176 93.848 23.0457 128 23.0457ZM128.007 62.2477C91.7397 62.2477 62.3385 91.6489 62.3385 127.917C62.3385 164.184 91.7397 193.585 128.007 193.585C164.275 193.585 193.676 164.184 193.676 127.917C193.676 91.6489 164.275 62.2477 128.007 62.2477ZM128.007 170.539C104.469 170.539 85.3842 151.454 85.3842 127.917C85.3842 104.379 104.469 85.2934 128.007 85.2934C151.545 85.2934 170.63 104.379 170.63 127.917C170.63 151.454 151.545 170.539 128.007 170.539ZM196.345 74.4983C196.345 66.0234 189.474 59.1526 180.999 59.1526C172.524 59.1526 165.653 66.0234 165.653 74.4983C165.653 82.9731 172.524 89.844 180.999 89.844C189.474 89.844 196.345 82.9731 196.345 74.4983Z"/>
</svg>
