<svg width="24" height="24" viewBox="0 0 24 24" fill="currentColor" xmlns="http://www.w3.org/2000/svg">
<path d="M19.4 4.6C19.8 4.2 20.4 4.2 20.8 4.6L23.4 7.2C23.8 7.6 23.8 8.2 23.4 8.6L8.6 23.4C8.2 23.8 7.6 23.8 7.2 23.4L4.6 20.8C4.2 20.4 4.2 19.8 4.6 19.4L19.4 4.6Z"/>
<path d="M2.4 2.4C2.8 2 3.4 2 3.8 2.4L6.4 5C6.8 5.4 6.8 6 6.4 6.4L5 7.8C4.6 8.2 4 8.2 3.6 7.8L1 5.2C0.6 4.8 0.6 4.2 1 3.8L2.4 2.4Z"/>
<path d="M14.6 2.4C15 2 15.6 2 16 2.4L18.6 5C19 5.4 19 6 18.6 6.4L17.2 7.8C16.8 8.2 16.2 8.2 15.8 7.8L13.2 5.2C12.8 4.8 12.8 4.2 13.2 3.8L14.6 2.4Z"/>
<path d="M7.4 9.6C7.8 9.2 8.4 9.2 8.8 9.6L11.4 12.2C11.8 12.6 11.8 13.2 11.4 13.6L10 15C9.6 15.4 9 15.4 8.6 15L6 12.4C5.6 12 5.6 11.4 6 11L7.4 9.6Z"/>
</svg>
