<svg width="256" height="256" viewBox="0 0 256 256" fill="none" xmlns="http://www.w3.org/2000/svg">
<path d="M58.3323 116.666C71.2188 116.666 81.6661 106.219 81.6661 93.3323V35C81.6661 22.1135 71.2188 11.6667 58.3323 11.6667C45.4459 11.6667 35 22.1135 35 35V93.3323C35 106.219 45.4459 116.666 58.3323 116.666ZM93.3323 116.666H151.667C164.553 116.666 175 106.219 175 93.3323C175 80.4459 164.553 70 151.667 70H93.3323V116.666ZM139.333 174.999V233.332C139.333 246.218 149.781 256.666 162.667 256.666C175.553 256.666 186 246.218 186 233.332V174.999H139.333ZM127.666 139.332H70C57.1135 139.332 46.6667 149.78 46.6667 162.666C46.6667 175.553 57.1135 186 70 186H127.666V139.332Z" fill="#E01E5A"/>
<path d="M58.3323 116.666C71.2188 116.666 81.6661 106.219 81.6661 93.3323V35C81.6661 22.1135 71.2188 11.6667 58.3323 11.6667C45.4459 11.6667 35 22.1135 35 35V93.3323C35 106.219 45.4459 116.666 58.3323 116.666Z" fill="#36C5F0"/>
<path d="M220.999 116.666C208.112 116.666 197.666 127.113 197.666 139.999V198.332C197.666 211.218 208.112 221.666 220.999 221.666C233.885 221.666 244.333 211.218 244.333 198.332V139.999C244.333 127.113 233.885 116.666 220.999 116.666ZM186 116.666V58.3323C186 45.4459 175.553 35 162.667 35C149.781 35 139.333 45.4459 139.333 58.3323V116.666H186Z" fill="#2EB67D"/>
<path d="M93.3323 116.666H151.667C164.553 116.666 175 106.219 175 93.3323C175 80.4459 164.553 70 151.667 70H93.3323V116.666Z" fill="#ECB22E"/>
<path d="M127.666 139.332H70C57.1135 139.332 46.6667 149.78 46.6667 162.666C46.6667 175.553 57.1135 186 70 186H127.666V139.332Z" fill="#E01E5A"/>
</svg>
